<?xml version="1.0" encoding="iso-8859-1"?>
<!-- Generator: Adobe Illustrator 19.0.0, SVG Export Plug-In . SVG Version: 6.00 Build 0)  -->
<svg version="1.1" id="Layer_1" xmlns="http://www.w3.org/2000/svg" xmlns:xlink="http://www.w3.org/1999/xlink" x="0px" y="0px"
	 viewBox="0 0 270 270" style="enable-background:new 0 0 270 270;" xml:space="preserve">
<path id="XMLID_110_" d="M227.633,44.024l2.315-27.778c0.348-4.181-1.069-8.316-3.91-11.403C223.198,1.756,219.195,0,215,0H55
	c-4.195,0-8.198,1.756-11.038,4.843c-2.84,3.087-4.258,7.222-3.91,11.402l2.315,27.779C34.507,52.308,30,63.367,30,75
	c0,14.229,6.824,27.538,17.943,35.943l12.108,145.303C60.7,264.02,67.199,270,75,270h120c7.801,0,14.3-5.98,14.948-13.754
	l12.108-145.303C233.176,102.538,240,89.229,240,75C240,63.366,235.493,52.307,227.633,44.024z M201.36,88.586
	c-4.857,2.281-8.126,6.983-8.572,12.332L181.198,240H88.802l-11.59-139.082c-0.446-5.348-3.714-10.05-8.572-12.332
	C63.392,86.121,60,80.788,60,75c0-4.918,2.424-9.533,6.484-12.345c4.41-3.054,6.853-8.231,6.408-13.577L71.302,30h127.396
	l-1.59,19.078c-0.445,5.346,1.998,10.524,6.408,13.578C207.576,65.468,210,70.082,210,75C210,80.788,206.608,86.121,201.36,88.586z"
	/>
<g>
</g>
<g>
</g>
<g>
</g>
<g>
</g>
<g>
</g>
<g>
</g>
<g>
</g>
<g>
</g>
<g>
</g>
<g>
</g>
<g>
</g>
<g>
</g>
<g>
</g>
<g>
</g>
<g>
</g>
</svg>
